<svg xmlns="http://www.w3.org/2000/svg" viewBox="0 0 512 512">
  <rect width="512" height="512" rx="112" fill="#2563eb"/>
  <path d="M256 116c-77.3 0-140 56.6-140 126.4 0 39.9 20.5 75.5 52.6 98.7-2.3 18.9-9.9 43.6-27.6 59.3-3.4 3-.9 8.6 3.6 8 32.1-4 61.5-17.9 79.9-28.9 10.2 2.2 20.8 3.3 31.5 3.3 77.3 0 140-56.6 140-126.4S333.3 116 256 116z" fill="#fff"/>
  <circle cx="196" cy="244" r="16" fill="#2563eb"/>
  <circle cx="256" cy="244" r="16" fill="#2563eb"/>
  <circle cx="316" cy="244" r="16" fill="#2563eb"/>
</svg>
